<?xml version="1.0" encoding="UTF-8"?>
<svg xmlns="http://www.w3.org/2000/svg" xmlns:xlink="http://www.w3.org/1999/xlink" viewBox="0 0 480 480">
  <defs>
    <style>
      .cls-1 {
        isolation: isolate;
      }

      .cls-2 {
        fill: #fff;
        mix-blend-mode: overlay;
      }

      .cls-3 {
        fill: #18263d;
      }

      .cls-4 {
        fill: url(#radial-gradient);
      }

      .cls-5 {
        fill: url(#radial-gradient-2);
      }

      .cls-6 {
        fill: none;
      }

      .cls-7 {
        fill: url(#radial-gradient-3);
      }
    </style>
    <radialGradient id="radial-gradient" cx="132.11" cy="299.36" fx="132.11" fy="299.36" r="275.97" gradientTransform="translate(111.48 -59.38) rotate(144.58) scale(1 -1.07)" gradientUnits="userSpaceOnUse">
      <stop offset="0" stop-color="#3dc8ff"/>
      <stop offset="1" stop-color="#cef1ff"/>
    </radialGradient>
    <radialGradient id="radial-gradient-2" cx="-117.75" cy="429.88" fx="-117.75" fy="429.88" r="34.9" gradientTransform="translate(369.64 -71.35) rotate(-167.41) scale(1 -1)" xlink:href="#radial-gradient"/>
    <radialGradient id="radial-gradient-3" cx="157.91" cy="104.1" fx="157.91" fy="104.1" r="215.78" gradientUnits="userSpaceOnUse">
      <stop offset="0" stop-color="#d53ee5"/>
      <stop offset="1" stop-color="#2424b5"/>
    </radialGradient>
  </defs>
  <g class="cls-1">
    <g id="Text">
      <g>
        <g>
          <path class="cls-4" d="m253.93,402.64c15.65,10.6,33.3,18.93,51.51,19.97,18.21,1.04,37-6.27,46.27-21.64,13.22-21.92,4.69-53.59,17.99-75.46,12.33-20.3,39.91-26.2,52.5-46.33,9.08-14.52,8.38-34.66.24-50.93-24.27-48.45-97.05-58.68-140.28-48.85-27.51,6.26-52.87,19.98-73.1,39.29-18.22,17.39-25.04,48.55-23.41,74.92,2.69,43.62,31.68,84.23,68.29,109.03Z"/>
          <circle class="cls-5" cx="398.63" cy="390.86" r="17.61"/>
        </g>
        <rect class="cls-6" width="480" height="480"/>
        <g>
          <path class="cls-7" d="m257.68,38.63c-78.72-8.74-150.58,47.59-160.72,126.14-7.34,56.87,18.95,109.87,63.02,139.67l-1.97,19.89c-.2,2.05,1.18,3.92,3.2,4.32l128.74,25.47c2.32.46,4.52-1.18,4.76-3.53l3.23-32.54c47.73-20.06,83.25-64.96,88.72-120.11,7.89-79.56-49.73-150.52-128.98-159.32Zm81.9,166.03l-9.86,14.11c-2.38,3.36-6.27,2.69-8.06-.8,0,0-11.28-16.9-19.25-28.83-1.09-1.63-3.43-1.79-4.73-.32l-23.71,26.62c-2.54,2.85-6.27,3.63-9.4,1.57-1.05-.69-1.92-1.73-2.61-2.91l-17.48-29.85c-1.03-1.76-3.47-2-4.83-.48l-23.12,25.97c-2.54,2.86-6.27,3.63-9.4,1.57-1.05-.69-1.92-1.73-2.61-2.92l-17.86-30.5c-1-1.7-3.34-2-4.72-.59l-24.34,24.68c-2.59,3.3-6.8,3.18-8.56-.85,0,0-3.5-8.17-7.58-17.69-1.96-4.58,3.03-9.2,5.92-5.48l4.3,5.53c1.19,1.53,3.49,1.54,4.7.04l24.14-30c.19-.27.4-.52.62-.77h0s0,0,0,0c1.23-1.37,2.79-2.43,5.18-2.41,3.01.03,5.75,1.91,7.49,4.88l16.82,28.72c1.03,1.76,3.47,2,4.83.48l23.12-25.97c2.54-2.86,6.27-3.63,9.4-1.57,1.05.69,1.92,1.73,2.61,2.92l17.48,29.85c1.03,1.76,3.47,2,4.83.48l22.08-24.79c2.31-2.59,5.4-3.91,8.39-3.35,2.35.44,3.66,1.78,4.58,3.35h0s0,0,0,0c.18.31.34.63.49.95l17.65,34.53c.89,1.74,3.18,2.18,4.65.89l4.1-3.59c3.58-3.13,7.6,2.44,4.73,6.55Z"/>
          <g>
            <path class="cls-3" d="m152.97,382.5c-1.85,0-3.4-1.45-3.49-3.33-.1-1.93,1.39-3.57,3.32-3.67l111.62-5.57-108.75-21.51c-1.9-.38-3.13-2.22-2.75-4.11.38-1.9,2.22-3.12,4.11-2.75l136.62,27.03c1.73.34,2.94,1.92,2.81,3.69-.13,1.76-1.55,3.15-3.32,3.24l-140,6.98c-.06,0-.12,0-.18,0Z"/>
            <path class="cls-3" d="m254.63,445.73c-.23,0-.45-.02-.68-.07l-105.85-20.94c-1.73-.34-2.94-1.92-2.81-3.69.13-1.76,1.55-3.15,3.32-3.24l140-6.98c1.93-.08,3.57,1.39,3.67,3.32.1,1.93-1.39,3.57-3.32,3.67l-111.62,5.57,77.98,15.42c1.9.38,3.13,2.22,2.75,4.11-.33,1.67-1.79,2.82-3.43,2.82Z"/>
            <path class="cls-3" d="m150.87,403.65c-1.85,0-3.4-1.45-3.49-3.33-.1-1.93,1.39-3.57,3.32-3.67l140-6.98c1.93-.09,3.57,1.39,3.67,3.32s-1.39,3.57-3.32,3.67l-140,6.98c-.06,0-.12,0-.18,0Z"/>
          </g>
          <path class="cls-3" d="m105.46,238.5c-1.41,0-2.75-.86-3.27-2.26-8.15-21.59-11.12-44.26-8.83-67.39,8.13-81.93,81.4-141.97,163.32-133.84,21.3,2.11,41.43,8.57,59.83,19.19,1.67.97,2.25,3.11,1.28,4.78-.97,1.67-3.11,2.25-4.78,1.28-17.53-10.12-36.72-16.27-57.02-18.28-78.09-7.75-147.92,49.48-155.67,127.57-2.19,22.05.64,43.66,8.41,64.23.68,1.81-.23,3.83-2.04,4.51-.41.15-.82.23-1.24.23Z"/>
          <path class="cls-2" d="m343.26,95.9c-1.42-1.65-4.04-1.65-5.45.17-1.02,1.32-.88,3.21.21,4.48,22.96,26.7,33.69,60.63,30.23,95.56-3.37,33.93-20.05,64.47-45.57,85.56-1.44,1.19-1.67,3.3-.55,4.78h0c1.21,1.6,3.5,1.85,5.04.58,26.9-22.25,44.49-54.46,48.04-90.23,3.66-36.9-7.69-72.73-31.96-100.9Z"/>
        </g>
      </g>
      <path class="cls-3" d="m295.62,344.99c-.12,0-.23,0-.35-.02-1.92-.19-3.33-1.9-3.14-3.83l2.33-23.44c.13-1.28.94-2.38,2.13-2.88,33.89-14.24,60.65-40.57,75.36-74.13.78-1.77,2.84-2.58,4.61-1.8,1.77.78,2.58,2.84,1.8,4.61-15.15,34.58-42.49,61.83-77.13,76.95l-2.12,21.38c-.18,1.81-1.7,3.15-3.48,3.15Z"/>
    </g>
  </g>
</svg>