<?xml version="1.0" encoding="utf-8"?>
<!-- Generator: Adobe Illustrator 27.3.1, SVG Export Plug-In . SVG Version: 6.00 Build 0)  -->
<svg version="1.1" id="Text" xmlns="http://www.w3.org/2000/svg" xmlns:xlink="http://www.w3.org/1999/xlink" x="0px" y="0px"
	 viewBox="0 0 480 480" style="enable-background:new 0 0 480 480;" xml:space="preserve">
<style type="text/css">
	.st0{fill:url(#SVGID_1_);}
	.st1{fill:url(#SVGID_00000039852160373496661720000008510448839793823878_);}
	.st2{fill:#18263D;}
	.st3{fill:url(#SVGID_00000117643791574372721200000015368502588923393963_);}
</style>
<g>
	
		<radialGradient id="SVGID_1_" cx="65.7444" cy="827.965" r="231.7254" gradientTransform="matrix(-0.8145 0.5802 0.5802 0.8145 -173.9428 -433.4502)" gradientUnits="userSpaceOnUse">
		<stop  offset="0" style="stop-color:#3DC8FF"/>
		<stop  offset="1" style="stop-color:#CEF1FF"/>
	</radialGradient>
	<path class="st0" d="M247.2,372.8c-17.4-38.9-12.9-86.9,11.7-121.9c24.5-34.9,68.1-55.6,110.6-52.4c11.9,0.9,23.9,3.6,34.3,9.4
		c16.6,9.4,28.3,26.7,31.4,45.5c3.2,19.3-2.4,37.5-14.1,53c-13,17.2-33.3,29.2-42.7,49.1c-8.3,17.6-9.2,37.7-22.9,52.8
		c-15.2,16.7-41.5,20.3-62.4,11.9C272.1,411.9,256.4,393.4,247.2,372.8L247.2,372.8z"/>
	
		<radialGradient id="SVGID_00000132054281346048002670000009811684277047134872_" cx="-594.5948" cy="-166.9259" r="36.9783" gradientTransform="matrix(-0.3334 -0.9428 -0.9428 0.3334 68.2862 -152.5231)" gradientUnits="userSpaceOnUse">
		<stop  offset="0" style="stop-color:#3DC8FF"/>
		<stop  offset="1" style="stop-color:#CEF1FF"/>
	</radialGradient>
	<circle style="fill:url(#SVGID_00000132054281346048002670000009811684277047134872_);" cx="442.8" cy="358.5" r="18.7"/>
</g>
<path class="st2" d="M82,267.1c-0.3,0-0.7,0-1-0.2L60,260.6c-1.5-0.4-2.5-1.8-2.5-3.3v-25.6c0-1.9,1.6-3.5,3.5-3.5s3.5,1.6,3.5,3.5
	v23l13.9,4.2v-73.1l-13.9,4.2v23c0,1.9-1.6,3.5-3.5,3.5s-3.5-1.6-3.5-3.5v-25.6c0-1.5,1-2.9,2.5-3.3l20.9-6.4
	c1.1-0.3,2.2-0.1,3.1,0.5c0.9,0.7,1.4,1.7,1.4,2.8v82.5c0,1.1-0.5,2.2-1.4,2.8C83.5,266.9,82.7,267.1,82,267.1z"/>
<path class="st2" d="M398,267.1c-0.7,0-1.5-0.2-2.1-0.7c-0.9-0.7-1.4-1.7-1.4-2.8v-82.5c0-1.1,0.5-2.2,1.4-2.8
	c0.9-0.7,2-0.9,3.1-0.5l20.9,6.4c1.5,0.4,2.5,1.8,2.5,3.3V213c0,1.9-1.6,3.5-3.5,3.5s-3.5-1.6-3.5-3.5v-23l-13.9-4.2v73.1l13.9-4.2
	v-23c0-1.9,1.6-3.5,3.5-3.5s3.5,1.6,3.5,3.5v25.6c0,1.5-1,2.9-2.5,3.3L399,267C398.7,267.1,398.4,267.1,398,267.1z"/>
<path class="st2" d="M270.3,133.1c-1.9,0-3.5-1.6-3.5-3.5V92.6c0-14.8-12-26.8-26.8-26.8s-26.8,12-26.8,26.8v37.1
	c0,1.9-1.6,3.5-3.5,3.5s-3.5-1.6-3.5-3.5V92.6c0-18.7,15.2-33.8,33.8-33.8c18.7,0,33.8,15.2,33.8,33.8v37.1
	C273.8,131.6,272.3,133.1,270.3,133.1z"/>
<radialGradient id="SVGID_00000088830621724763378070000000417001461358488221_" cx="380.3352" cy="368.6798" r="465.8963" gradientTransform="matrix(1 0 0 -1 0 482)" gradientUnits="userSpaceOnUse">
	<stop  offset="0" style="stop-color:#D53EE5"/>
	<stop  offset="1" style="stop-color:#2424B5"/>
</radialGradient>
<path style="fill:url(#SVGID_00000088830621724763378070000000417001461358488221_);" d="M135.1,385.3
	c-0.7,17.6-15.1,31.9-32.6,32.4c-7,0.2-13.7-1.7-19.4-5.4c-1-0.6-1.2-2-0.5-2.9l6.6-8.9c0.6-0.8,1.8-1,2.7-0.5
	c3.1,1.8,6.6,2.8,10.2,2.7c9.5-0.3,17.5-8,18.1-17.5c0.7-10.9-8-20-18.7-20c-3.4,0-6.7,0.9-9.6,2.7c-0.9,0.5-2,0.3-2.7-0.5l-6.6-8.8
	c-0.7-0.9-0.5-2.3,0.5-2.9c5.5-3.6,11.8-5.4,18.4-5.4C120.4,350.3,135.8,366.2,135.1,385.3z M221.6,100.4l19.2,30.5
	c0.9,1.4,3,0.5,2.6-1.1l-5.1-22.2h18.1c1.7,0,2.7-1.9,1.8-3.3L239,73.6c-0.9-1.4-3-0.5-2.6,1.1l5.1,22.4h-18
	C221.8,97.1,220.7,98.9,221.6,100.4L221.6,100.4z M390.9,400.6c-0.6-0.8-1.8-1-2.7-0.5c-3.1,1.8-6.6,2.8-10.2,2.7
	c-9.5-0.3-17.5-8-18.1-17.5c-0.7-10.9,8-20,18.7-20c3.4,0,6.7,0.9,9.6,2.7c0.9,0.5,2,0.3,2.7-0.5l6.6-8.8c0.7-0.9,0.5-2.3-0.5-2.9
	c-5.5-3.6-11.8-5.4-18.4-5.4c-19,0-34.4,15.8-33.7,35c0.7,17.6,15.1,31.9,32.6,32.4c7,0.2,13.7-1.7,19.4-5.4c1-0.6,1.2-2,0.5-2.9
	L390.9,400.6z M319.7,195.3c-15,0-27.1,12.1-27.1,27.1c0,15,12.1,27.1,27.1,27.1s27.1-12.1,27.1-27.1
	C346.8,207.4,334.7,195.3,319.7,195.3z M269.8,229.9h-59.7c-3.6,0-6.5,2.9-6.5,6.5s2.9,6.5,6.5,6.5h59.7c3.6,0,6.5-2.9,6.5-6.5
	S273.4,229.9,269.8,229.9z M160.3,195.3c-15,0-27.1,12.1-27.1,27.1c0,15,12.1,27.1,27.1,27.1s27.1-12.1,27.1-27.1
	C187.4,207.4,175.3,195.3,160.3,195.3z M398,176.6v91.6c0,19.9-16.2,36.1-36.1,36.1H118.1c-19.9,0-36.1-16.2-36.1-36.1v-91.6
	c0-19.9,16.2-36.1,36.1-36.1h243.8C381.8,140.4,398,156.6,398,176.6z M369.5,222.4c0-27.5-22.3-49.8-49.8-49.8H160.3
	c-27.5,0-49.8,22.3-49.8,49.8s22.3,49.8,49.8,49.8h159.4C347.2,272.1,369.5,249.9,369.5,222.4z"/>
<g>
	<path class="st2" d="M319.7,275.6H160.3c-23.5,0-44-15.1-50.9-37.5c-0.6-1.8,0.5-3.8,2.3-4.4c1.8-0.6,3.8,0.5,4.4,2.3
		c6,19.5,23.8,32.6,44.2,32.6h159.4c20.4,0,38.2-13.1,44.2-32.6c0.6-1.8,2.5-2.9,4.4-2.3c1.8,0.6,2.9,2.5,2.3,4.4
		C363.7,260.6,343.2,275.6,319.7,275.6z"/>
	<path class="st2" d="M112.7,211.2c-0.3,0-0.7-0.1-1-0.2c-1.8-0.6-2.9-2.5-2.3-4.4c6.9-22.5,27.4-37.5,50.9-37.5h159.4
		c23.5,0,44,15.1,50.9,37.5c0.6,1.8-0.5,3.8-2.3,4.4c-1.8,0.6-3.8-0.5-4.4-2.3c-6-19.5-23.8-32.6-44.2-32.6H160.3
		c-20.4,0-38.2,13.1-44.2,32.6C115.6,210.2,114.2,211.2,112.7,211.2z"/>
</g>
<g>
	<path class="st2" d="M210.8,352.6c-0.4,0-0.9-0.1-1.3-0.3l-32.4-13.5c-0.9-0.4-1.5-1-1.9-1.9c-0.4-0.9-0.3-1.8,0-2.7
		c2.4-5.7,3.6-11.8,3.6-18c0-1.9,1.6-3.5,3.5-3.5s3.5,1.6,3.5,3.5c0,6-1,11.8-2.9,17.4l26,10.8c3.3-9,5-18.5,5-28.3
		c0-1.9,1.6-3.5,3.5-3.5s3.5,1.6,3.5,3.5c0,11.8-2.3,23.4-6.9,34.2C213.5,351.8,212.2,352.6,210.8,352.6z"/>
	<path class="st2" d="M132,405.1c-1.9,0-3.5-1.6-3.5-3.5s1.6-3.5,3.5-3.5c9.6,0,18.9-1.6,27.9-4.9l-10.7-26
		c-5.5,1.9-11.3,2.8-17.2,2.8c-1.9,0-3.5-1.6-3.5-3.5s1.6-3.5,3.5-3.5c6.1,0,12.1-1.2,17.8-3.5c0.9-0.4,1.8-0.4,2.7,0
		c0.9,0.4,1.5,1,1.9,1.9l13.4,32.5c0.7,1.8-0.1,3.8-1.9,4.6C155.1,402.9,143.7,405.1,132,405.1z"/>
	<path class="st2" d="M164.5,398.7c-0.5,0-0.9-0.1-1.3-0.3c-0.9-0.4-1.5-1-1.9-1.9L147.9,364c-0.7-1.8,0.1-3.8,1.9-4.6
		c5.7-2.3,10.7-5.7,15.1-10c0.7-0.7,1.5-1,2.5-1c0.9,0,1.8,0.4,2.5,1l24.7,25c1.4,1.4,1.3,3.6,0,5c-8.3,8.2-17.9,14.6-28.7,19
		C165.4,398.6,165,398.7,164.5,398.7z M155.7,364.5l10.7,26c7.6-3.5,14.5-8.1,20.7-13.7l-19.8-20
		C163.7,359.9,159.9,362.5,155.7,364.5z"/>
	<path class="st2" d="M192.1,380.4C192.1,380.4,192.1,380.4,192.1,380.4c-0.9,0-1.8-0.4-2.5-1l-24.7-25c-0.7-0.7-1-1.6-1-2.5
		c0-0.9,0.4-1.8,1-2.5c4.4-4.4,7.9-9.5,10.3-15.2c0.7-1.8,2.8-2.6,4.6-1.9l32.4,13.5c0.9,0.4,1.5,1,1.9,1.9c0.4,0.9,0.3,1.8,0,2.7
		c-4.5,10.9-11.1,20.6-19.5,28.9C193.9,380,193,380.4,192.1,380.4z M172.3,351.9l19.8,20c5.8-6.2,10.5-13.3,14.1-20.9l-26-10.8
		C178.1,344.4,175.4,348.3,172.3,351.9z"/>
</g>
<g>
	<path class="st2" d="M269.2,352.6c-1.4,0-2.7-0.8-3.2-2.1c-4.6-10.9-6.9-22.4-6.9-34.2c0-1.9,1.6-3.5,3.5-3.5s3.5,1.6,3.5,3.5
		c0,9.7,1.7,19.2,5,28.3l26-10.8c-1.9-5.6-2.9-11.5-2.9-17.4c0-1.9,1.6-3.5,3.5-3.5s3.5,1.6,3.5,3.5c0,6.2,1.2,12.3,3.6,18
		c0.4,0.9,0.4,1.8,0,2.7c-0.4,0.9-1,1.5-1.9,1.9l-32.4,13.5C270.1,352.5,269.6,352.6,269.2,352.6z"/>
	<path class="st2" d="M348,405.1c-11.7,0-23-2.3-33.8-6.7c-1.8-0.7-2.6-2.8-1.9-4.6l13.4-32.5c0.4-0.9,1-1.5,1.9-1.9
		c0.9-0.4,1.8-0.4,2.7,0c5.7,2.3,11.6,3.5,17.8,3.5c1.9,0,3.5,1.6,3.5,3.5s-1.6,3.5-3.5,3.5c-5.9,0-11.6-0.9-17.2-2.8l-10.7,26
		c8.9,3.3,18.3,4.9,27.9,4.9c1.9,0,3.5,1.6,3.5,3.5S349.9,405.1,348,405.1z"/>
	<path class="st2" d="M315.5,398.7c-0.5,0-0.9-0.1-1.3-0.3c-10.7-4.4-20.4-10.8-28.7-19c-1.4-1.4-1.4-3.6,0-5l24.7-25
		c0.7-0.7,1.5-1,2.5-1c0,0,0,0,0,0c0.9,0,1.8,0.4,2.5,1c4.4,4.3,9.4,7.7,15.1,10c1.8,0.7,2.6,2.8,1.9,4.6l-13.4,32.5
		c-0.4,0.9-1,1.5-1.9,1.9C316.4,398.6,316,398.7,315.5,398.7z M292.9,376.8c6.2,5.6,13.1,10.2,20.7,13.7l10.7-26
		c-4.2-2.1-8.1-4.6-11.6-7.7L292.9,376.8z"/>
	<path class="st2" d="M287.9,380.4c-0.9,0-1.8-0.3-2.5-1c-8.4-8.3-15-18.1-19.5-28.9c-0.4-0.9-0.4-1.8,0-2.7c0.4-0.9,1-1.5,1.9-1.9
		l32.4-13.5c1.8-0.7,3.8,0.1,4.6,1.9c2.4,5.7,5.9,10.8,10.3,15.2c1.4,1.4,1.4,3.6,0,5l-24.7,25C289.7,380,288.8,380.4,287.9,380.4z
		 M273.8,351c3.6,7.7,8.3,14.7,14.1,20.9l19.8-20c-3.2-3.6-5.8-7.5-8-11.8L273.8,351z"/>
</g>
<path class="st2" d="M361.9,307.8H118.1c-21.8,0-39.6-17.8-39.6-39.6v-91.6c0-21.8,17.8-39.6,39.6-39.6h243.8
	c21.8,0,39.6,17.8,39.6,39.6v91.6C401.5,290,383.7,307.8,361.9,307.8z M118.1,143.9c-18,0-32.6,14.6-32.6,32.6v91.6
	c0,18,14.6,32.6,32.6,32.6h243.8c18,0,32.6-14.6,32.6-32.6v-91.6c0-18-14.6-32.6-32.6-32.6H118.1z"/>
<g>
	<path class="st2" d="M71.5,213.2c-1.8,0-3.3-1.3-3.5-3.1c-0.2-1.9,1.2-3.6,3.1-3.8l10.5-1.1c1.9-0.2,3.6,1.2,3.8,3.1
		c0.2,1.9-1.2,3.6-3.1,3.8l-10.5,1.1C71.7,213.2,71.6,213.2,71.5,213.2z"/>
	<path class="st2" d="M82,225.9H71.5c-1.9,0-3.5-1.6-3.5-3.5s1.6-3.5,3.5-3.5H82c1.9,0,3.5,1.6,3.5,3.5S83.9,225.9,82,225.9z"/>
	<path class="st2" d="M82,239.6c-0.1,0-0.2,0-0.4,0l-10.5-1.1c-1.9-0.2-3.3-1.9-3.1-3.8c0.2-1.9,1.9-3.3,3.8-3.1l10.5,1.1
		c1.9,0.2,3.3,1.9,3.1,3.8C85.3,238.3,83.8,239.6,82,239.6z"/>
</g>
<g>
	<path class="st2" d="M398,239.6c-1.8,0-3.3-1.3-3.5-3.1c-0.2-1.9,1.2-3.6,3.1-3.8l10.5-1.1c1.9-0.2,3.6,1.2,3.8,3.1
		c0.2,1.9-1.2,3.6-3.1,3.8l-10.5,1.1C398.2,239.6,398.1,239.6,398,239.6z"/>
	<path class="st2" d="M408.5,225.9H398c-1.9,0-3.5-1.6-3.5-3.5s1.6-3.5,3.5-3.5h10.5c1.9,0,3.5,1.6,3.5,3.5S410.4,225.9,408.5,225.9
		z"/>
	<path class="st2" d="M408.5,213.2c-0.1,0-0.2,0-0.4,0l-10.5-1.1c-1.9-0.2-3.3-1.9-3.1-3.8c0.2-1.9,1.9-3.3,3.8-3.1l10.5,1.1
		c1.9,0.2,3.3,1.9,3.1,3.8C411.8,211.8,410.3,213.2,408.5,213.2z"/>
</g>
<path class="st2" d="M121.9,414.3c-1,0-2.1-0.5-2.8-1.4c-1.2-1.5-0.9-3.7,0.6-4.9c7.2-5.5,11.5-13.8,11.8-22.8
	c0.4-9.8-4.1-19.2-11.8-25.1c-1.5-1.2-1.8-3.4-0.6-4.9c1.2-1.5,3.4-1.8,4.9-0.6c9.6,7.3,15,18.9,14.6,31c-0.4,11-5.7,21.2-14.6,28.1
	C123.4,414,122.7,414.3,121.9,414.3z"/>
<path class="st2" d="M358.1,414.3c-0.7,0-1.5-0.2-2.1-0.7c-9.6-7.3-15-18.9-14.6-31c0.4-11,5.7-21.2,14.6-28.1
	c1.5-1.2,3.7-0.9,4.9,0.6s0.9,3.7-0.6,4.9c-7.2,5.5-11.5,13.8-11.8,22.8c-0.4,9.8,4.1,19.2,11.8,25.1c1.5,1.2,1.8,3.4,0.6,4.9
	C360.2,413.8,359.1,414.3,358.1,414.3z"/>
</svg>
