<?xml version="1.0" encoding="UTF-8"?>
<svg xmlns="http://www.w3.org/2000/svg" xmlns:xlink="http://www.w3.org/1999/xlink" viewBox="0 0 480 480">
  <defs>
    <style>
      .cls-1 {
        isolation: isolate;
      }

      .cls-2 {
        fill: #fff;
        mix-blend-mode: overlay;
      }

      .cls-3 {
        fill: #18263d;
      }

      .cls-4 {
        fill: url(#radial-gradient);
      }

      .cls-5 {
        fill: url(#radial-gradient-2);
      }

      .cls-6 {
        fill: none;
      }

      .cls-7 {
        fill: url(#radial-gradient-3);
      }
    </style>
    <radialGradient id="radial-gradient" cx="171.03" cy="39.86" fx="171.03" fy="39.86" r="241.68" gradientTransform="translate(50.56 85.58) rotate(67.88) scale(1 1.04)" gradientUnits="userSpaceOnUse">
      <stop offset="0" stop-color="#3dc8ff"/>
      <stop offset="1" stop-color="#cef1ff"/>
    </radialGradient>
    <radialGradient id="radial-gradient-2" cx="112.4" cy="262.99" fx="112.4" fy="262.99" r="34.9" gradientTransform="translate(-34.39 675.96) rotate(-137.08)" xlink:href="#radial-gradient"/>
    <radialGradient id="radial-gradient-3" cx="202.06" cy="165.59" fx="202.06" fy="165.59" r="222.3" gradientUnits="userSpaceOnUse">
      <stop offset="0" stop-color="#d53ee5"/>
      <stop offset="1" stop-color="#2424b5"/>
    </radialGradient>
  </defs>
  <g class="cls-1">
    <g id="Text">
      <g>
        <rect class="cls-6" width="480" height="480"/>
        <g>
          <path class="cls-4" d="m133.38,417.6c-7.24-13.27-4.91-34.87-13.52-49.29-8.76-14.67-24.33-16.86-39.5-23.99-23.36-10.98-46.19-42.59-29.59-74.72,15.24-29.51,79.61-52.62,113.95-53.59,78.98-2.23,130.53,15.43,139.74,70.02,6.08,36.02-15.2,59.18-41.86,78.48-12.39,8.97-24.59,19.01-31.73,32.59-8.06,15.33-13.81,29.02-28.47,40.14-21.13,16.02-48.16,18.63-69.02-19.64Z"/>
          <circle class="cls-5" cx="80.83" cy="403.65" r="17.61"/>
        </g>
        <g>
          <g>
            <path class="cls-3" d="m215.76,382.54c-32.05,0-63.25-11.19-88.18-31.69-25.98-21.37-43.31-51.44-48.79-84.67-5.48-33.23,1.26-67.27,19-95.85,17.57-28.31,44.66-49.38,76.28-59.31,1.84-.58,3.81.45,4.39,2.29s-.45,3.81-2.29,4.39c-62.22,19.55-101.11,82.9-90.48,147.35,10.64,64.45,67.79,111.95,133.02,110.47,1.93-.06,3.53,1.49,3.58,3.42.04,1.93-1.49,3.53-3.42,3.58-1.04.02-2.08.04-3.12.04Z"/>
            <path class="cls-3" d="m91.25,193.69c-1.68,0-3.17-1.22-3.45-2.93-.31-1.91.98-3.71,2.88-4.02l31.87-5.26c1.91-.32,3.71.98,4.02,2.88.31,1.91-.98,3.71-2.88,4.02l-31.87,5.26c-.19.03-.38.05-.57.05Z"/>
            <path class="cls-3" d="m84,216.01c-1.68,0-3.17-1.22-3.45-2.93-.31-1.91.98-3.71,2.88-4.02l32.99-5.44c1.91-.32,3.71.98,4.02,2.88.31,1.91-.98,3.71-2.88,4.02l-32.99,5.44c-.19.03-.38.05-.57.05Z"/>
            <path class="cls-3" d="m80.73,237.67c-1.68,0-3.17-1.22-3.45-2.93-.31-1.91.98-3.71,2.88-4.02l33.13-5.47c1.9-.32,3.71.98,4.02,2.88.31,1.91-.98,3.71-2.88,4.02l-33.13,5.47c-.19.03-.38.05-.57.05Z"/>
            <path class="cls-3" d="m84.32,279.32c-1.68,0-3.17-1.22-3.45-2.93-.31-1.91.98-3.71,2.88-4.02l33.35-5.5c1.91-.31,3.71.98,4.02,2.88.31,1.91-.98,3.71-2.88,4.02l-33.35,5.5c-.19.03-.38.05-.57.05Z"/>
            <path class="cls-3" d="m90.91,299.36c-1.68,0-3.17-1.22-3.45-2.93-.31-1.91.98-3.71,2.88-4.02l33.13-5.47c1.91-.32,3.71.98,4.02,2.88.31,1.91-.98,3.71-2.88,4.02l-33.13,5.47c-.19.03-.38.05-.57.05Z"/>
            <path class="cls-3" d="m100.97,318.82c-1.68,0-3.17-1.22-3.45-2.93-.31-1.91.98-3.71,2.88-4.02l32.64-5.39c1.91-.32,3.71.98,4.02,2.88.31,1.91-.98,3.71-2.88,4.02l-32.64,5.39c-.19.03-.38.05-.57.05Z"/>
            <path class="cls-3" d="m134.72,355.5c-1.68,0-3.17-1.22-3.45-2.93-.31-1.91.98-3.71,2.88-4.02l30.11-4.97c1.91-.32,3.71.98,4.02,2.88.31,1.91-.98,3.71-2.88,4.02l-30.11,4.97c-.19.03-.38.05-.57.05Z"/>
            <path class="cls-3" d="m163.3,371.91c-1.68,0-3.17-1.22-3.45-2.93-.31-1.91.98-3.71,2.88-4.02l26.22-4.33c1.91-.32,3.71.98,4.02,2.88.31,1.91-.98,3.71-2.88,4.02l-26.22,4.33c-.19.03-.38.05-.57.05Z"/>
          </g>
          <path class="cls-7" d="m397.73,213.54c-12.18-73.82-81.9-123.78-155.72-111.6s-123.78,81.9-111.6,155.72,81.9,123.78,155.72,111.6,123.78-81.9,111.6-155.72Zm-111.72,75.79l2.64,15.98c.31,1.9-.97,3.69-2.87,4l-19.32,3.19c-1.9.31-3.69-.97-4-2.87l-2.47-14.97c-8.37.01-15.81-1.64-24.33-5.35-1.08-.47-1.85-1.46-2.04-2.62l-4.18-25.33c-.21-1.29.32-2.6,1.38-3.37,1.06-.78,2.46-.89,3.63-.3,12.66,6.41,25.1,9.43,33.28,8.08,2.9-.48,9.52-2.42,8.25-10.11-.67-4.08-5.77-5.25-16.32-7.3l-1.44-.28c-16.4-2.98-32.76-7.79-36.48-30.36-2.52-15.26,4.96-28.86,19.62-36.07l-2.6-15.76c-.31-1.9.97-3.69,2.87-4l19.32-3.19c1.9-.31,3.69.97,4,2.87l2.44,14.78c6.21.21,12.57,1.4,19.36,3.63,1.23.4,2.14,1.46,2.35,2.74l3.85,23.32c.22,1.32-.34,2.65-1.44,3.42-1.1.77-2.54.84-3.71.18-7.44-4.2-18.91-6.24-27.26-4.87-6.23,1.03-9.5,4.32-8.76,8.8.82,4.98,4.4,5.95,15.23,7.66,16.44,2.46,35.79,8.03,39.33,29.49,2.83,17.15-4.73,31.39-20.31,38.6Z"/>
          <path class="cls-3" d="m325.78,359.74c-1.27,0-2.5-.7-3.12-1.91-.88-1.72-.2-3.83,1.52-4.71,51.31-26.23,79.48-82.1,70.09-139.01-9.57-57.99-56.99-103.08-115.32-109.67-1.92-.22-3.3-1.95-3.08-3.87.22-1.92,1.95-3.31,3.87-3.09,29.46,3.33,57.66,16.38,79.42,36.76,22.47,21.05,37,48.27,42.02,78.72,4.9,29.66.24,59.43-13.47,86.08-13.44,26.14-34.3,46.98-60.34,60.29-.51.26-1.05.38-1.59.38Z"/>
          <path class="cls-2" d="m262.2,355.49h-.05c-57.97-.86-106.91-43.08-116.37-100.37-6.59-39.96,7.26-80.23,37.07-107.72,1.42-1.31,3.63-1.22,4.95.2,1.31,1.42,1.22,3.63-.2,4.95-28.07,25.89-41.12,63.81-34.91,101.44,8.9,53.95,54.98,93.7,109.56,94.51,1.93.03,3.48,1.62,3.45,3.55-.03,1.92-1.59,3.45-3.5,3.45Z"/>
        </g>
      </g>
    </g>
  </g>
</svg>