<svg xmlns="http://www.w3.org/2000/svg" xmlns:xlink="http://www.w3.org/1999/xlink" viewBox="0 0 500 211.8487"><defs><style>.cls-1{fill:#000083;}.cls-2{fill:url(#linear-gradient);}.cls-3{fill:url(#linear-gradient-2);}.cls-4{fill:#22b5f0;}.cls-5{fill:url(#linear-gradient-3);}.cls-6{fill:url(#linear-gradient-4);}.cls-7{fill:url(#linear-gradient-5);}.cls-8{fill:none;}</style><linearGradient id="linear-gradient" x1="54.58112" y1="187.41079" x2="-1.59076" y2="57.84542" gradientUnits="userSpaceOnUse"><stop offset="0" stop-color="#000083"/><stop offset="1" stop-color="#22b5f0"/></linearGradient><linearGradient id="linear-gradient-2" x1="87.05266" y1="198.61604" x2="26.6523" y2="55.32581" gradientUnits="userSpaceOnUse"><stop offset="0" stop-color="#000083"/><stop offset="0.08408" stop-color="#091c95"/><stop offset="0.25492" stop-color="#1850b5"/><stop offset="0.42293" stop-color="#267bcf"/><stop offset="0.58458" stop-color="#309de4"/><stop offset="0.73819" stop-color="#37b5f3"/><stop offset="0.88033" stop-color="#3bc3fc"/><stop offset="1" stop-color="#3dc8ff"/></linearGradient><linearGradient id="linear-gradient-3" x1="143.42209" y1="169.90475" x2="47.778" y2="65.31355" gradientUnits="userSpaceOnUse"><stop offset="0" stop-color="#2083e6"/><stop offset="0.03759" stop-color="#2488e8"/><stop offset="0.3881" stop-color="#44b0f4"/><stop offset="0.66581" stop-color="#58c9fc"/><stop offset="0.83453" stop-color="#5fd2ff"/></linearGradient><linearGradient id="linear-gradient-4" x1="121.24446" y1="52.17185" x2="66.98946" y2="52.17185" gradientUnits="userSpaceOnUse"><stop offset="0" stop-color="#099cd6"/><stop offset="0.04624" stop-color="#0ea1db"/><stop offset="0.20514" stop-color="#19ace7"/><stop offset="0.42511" stop-color="#20b3ee"/><stop offset="1" stop-color="#22b5f0"/></linearGradient><linearGradient id="linear-gradient-5" x1="63.86874" y1="64.20617" x2="120.78321" y2="64.20617" gradientUnits="userSpaceOnUse"><stop offset="0" stop-color="#3dc8ff"/><stop offset="0.3969" stop-color="#36c3fb"/><stop offset="0.96322" stop-color="#23b6f1"/><stop offset="1" stop-color="#22b5f0"/></linearGradient></defs><g id="Logo_Artwork" data-name="Logo Artwork"><path class="cls-1" d="M138.46177,165.63588,153.54606,65.36a4.23287,4.23287,0,0,1,3.00712-3.43581l30.14658-8.74014a2.82193,2.82193,0,0,1,3.57648,3.12894L175.1888,156.89125c-.58283,4.85871,1.36065,6.80115,6.02438,6.80115a27.53113,27.53113,0,0,0,4.56588-.41611,3.03109,3.03109,0,0,1,3.52042,3.42452l-3.11263,20.65235a5.01284,5.01284,0,0,1-3.8406,4.13787,65.03661,65.03661,0,0,1-15.70711,1.93332C145.65182,193.42435,135.74152,183.708,138.46177,165.63588Zm184.49913,0L338.04519,65.36a4.23286,4.23286,0,0,1,3.00712-3.43581l30.14658-8.74014a2.82193,2.82193,0,0,1,3.57648,3.12894L359.68793,156.89125c-.58283,4.85871,1.36065,6.80115,6.02438,6.80115a27.53093,27.53093,0,0,0,4.56587-.41611,3.03108,3.03108,0,0,1,3.52042,3.42452L370.686,187.35316a5.01284,5.01284,0,0,1-3.8406,4.13787,65.03661,65.03661,0,0,1-15.70711,1.93332C330.151,193.42435,320.24065,183.708,322.9609,165.63588Zm-7.68624,1.01356-3.01393,20.9534a4.602,4.602,0,0,1-3.54175,3.82731,69.08664,69.08664,0,0,1-15.94815,1.9942c-13.60229,0-22.153-4.4698-25.65-12.04772-8.1618,7.189-20.40449,12.04772-33.81285,12.04772-25.26112,0-39.25232-16.90642-35.56032-41.77967l8.16794-55.32287a3.02762,3.02762,0,0,1,2.99515-2.58542H238.156a3.02763,3.02763,0,0,1,2.99512,3.47005l-7.06534,47.831c-1.74955,11.27095,3.10915,18.26707,13.60229,18.26707,10.68812,0,18.266-6.60721,19.82061-17.68423l7.38652-49.30486a3.02761,3.02761,0,0,1,2.9942-2.579h29.252a3.02762,3.02762,0,0,1,2.99513,3.47l-8.815,59.68488c-.77781,4.66374,1.16568,6.80115,6.02334,6.80115a23.05471,23.05471,0,0,0,4.36177-.44491A3.03373,3.03373,0,0,1,315.27466,166.64944Zm184.69369,0-3.16683,22.0165a3.04192,3.04192,0,0,1-2.33246,2.52342,71.21608,71.21608,0,0,1-17.00454,2.235c-13.6023,0-22.153-4.4698-25.65-12.04772-8.16179,7.189-20.40448,12.04772-33.81285,12.04772-25.26111,0-39.25231-16.90642-35.56032-41.77967l8.168-55.32287a3.02762,3.02762,0,0,1,2.99515-2.58542h29.24525a3.02762,3.02762,0,0,1,2.99512,3.47005l-7.06534,47.831c-1.74955,11.27095,3.10916,18.26707,13.6023,18.26707,10.68811,0,18.266-6.60721,19.82061-17.68423l7.38651-49.30486a3.02762,3.02762,0,0,1,2.99421-2.579h29.252a3.02763,3.02763,0,0,1,2.99514,3.47l-8.815,59.68488c-.77781,4.66374,1.16567,6.80115,6.02334,6.80115a23.05479,23.05479,0,0,0,4.36177-.44491A3.03373,3.03373,0,0,1,499.96835,166.64944Z"/><path class="cls-2" d="M98.53893,192.24716c-14.7081-36.78553-61.3913-47.2302-70.54686-48.94619a1.64626,1.64626,0,0,1-1.327-1.86305L39.91018,53.54058a159.93,159.93,0,0,0-22.27413-.73812,1.642,1.642,0,0,0-1.53093,1.39918L.01887,160.95473a1.641,1.641,0,0,0,1.66154,1.89013c11.64857-.28392,71.96189-.30049,89.49826,28.94727a3.30491,3.30491,0,0,0,3.7542,1.50254Z"/><path class="cls-3" d="M104.98033,188.383c-3.653-23.48012-31.2523-48.41439-31.2523-48.41439-8.24146-10.02971-1.33826-23.95972,2.03162-29.51374a1.63939,1.63939,0,0,0-1.27925-2.48635c-5.24718-.40534-15.85547-2.72378-15.85161-14.84584a20.90864,20.90864,0,0,1,.2651-3.09664l4.97483-33.11351v-.00006l-.00665-.00125c-5.14577-.9784-10.2815-1.779-15.23354-2.41029l-.05985-.00766c-2.96406-.3772-5.85973-.69407-8.65113-.952l-.00737-.00072L26.66509,141.43792a1.64626,1.64626,0,0,0,1.327,1.86305c9.15556,1.716,55.83876,12.16066,70.54686,48.94619l4.11043-1.19393a3.291,3.291,0,0,0,2.33619-2.66993l.55252-3.66656C105.1756,187.10115,104.98033,188.383,104.98033,188.383Z"/><path class="cls-4" d="M48.56868,54.49328l.05983.00764c4.95208.63134,10.0878,1.43193,15.23359,2.41035l.00664.00121L66.98946,36.1403a109.38354,109.38354,0,0,0-22.55534-3.11512,1.63821,1.63821,0,0,0-1.64368,1.40115L39.91015,53.5406l.00741.00072C42.709,53.79924,45.60465,54.1161,48.56868,54.49328Z"/><path class="cls-5" d="M119.46839,92.272c2.90772-18.57285-26.46229-29.81839-55.59967-35.35946L58.89389,90.02605a20.90864,20.90864,0,0,0-.2651,3.09664c-.00386,12.12206,10.60443,14.4405,15.85161,14.84584a1.63939,1.63939,0,0,1,1.27925,2.48635c-3.36988,5.554-10.27308,19.484-2.03162,29.51374,0,0,27.59933,24.93427,31.2523,48.41439,0,.00006,7.03572-46.18655,15.4442-102.45635Z"/><path class="cls-6" d="M120.42564,85.91935C127.96313,35.478,81.23539,20.94562,71.46921,18.47522a1.643,1.643,0,0,0-2.02884,1.35157L66.98946,36.1403C94.15212,42.62847,124.42333,59.21213,120.42564,85.91935Z"/><path class="cls-7" d="M66.98946,36.1403,63.86874,56.91248h0v.00006c29.13738,5.54108,58.50737,16.78662,55.59963,35.35949l.95727-6.35268C124.42333,59.21213,94.15212,42.62847,66.98946,36.1403Z"/><rect class="cls-8" width="500" height="211.8487"/></g></svg>